<svg width="26" height="33" viewBox="0 0 26 33" fill="none" xmlns="http://www.w3.org/2000/svg">
<path d="M0.0556641 12.9303C0.0556641 5.87332 5.77566 0.15332 12.8317 0.15332C19.8887 0.15332 25.6087 5.87332 25.6087 12.9303C25.6087 14.1933 25.4227 15.4123 25.0817 16.5673C23.2627 23.9243 12.7747 32.1533 12.7747 32.1533C12.7747 32.1533 0.925664 22.8623 0.228664 15.1953L0.259664 15.1893C0.127664 14.4573 0.0556641 13.7023 0.0556641 12.9303ZM12.6577 15.7763C15.5447 15.7763 17.8847 13.4353 17.8847 10.5483C17.8847 7.66132 15.5447 5.32132 12.6577 5.32132C9.77166 5.32132 7.43166 7.66132 7.43166 10.5483C7.43166 13.4353 9.77166 15.7763 12.6577 15.7763Z" fill="#4B9200"/>
</svg>
